<svg width="720" height="420" viewBox="0 0 720 420" fill="none" xmlns="http://www.w3.org/2000/svg">
  <defs>
    <linearGradient id="bg" x1="0" y1="0" x2="720" y2="420" gradientUnits="userSpaceOnUse">
      <stop stop-color="#0B1F19"/>
      <stop offset="1" stop-color="#173B30"/>
    </linearGradient>
    <linearGradient id="accent" x1="129" y1="117" x2="520" y2="343" gradientUnits="userSpaceOnUse">
      <stop stop-color="#8EF900"/>
      <stop offset="1" stop-color="#09D6DE"/>
    </linearGradient>
    <filter id="glow" x="0" y="0" width="720" height="420" filterUnits="userSpaceOnUse" color-interpolation-filters="sRGB">
      <feGaussianBlur stdDeviation="20" result="blur"/>
      <feBlend in="SourceGraphic" in2="blur" mode="screen"/>
    </filter>
  </defs>
  <rect width="720" height="420" rx="26" fill="url(#bg)"/>
  <circle cx="132" cy="84" r="96" fill="#8EF900" fill-opacity="0.12"/>
  <circle cx="606" cy="76" r="82" fill="#09D6DE" fill-opacity="0.16"/>
  <circle cx="610" cy="354" r="108" fill="#8EF900" fill-opacity="0.08"/>

  <g filter="url(#glow)" opacity="0.85">
    <path d="M220 307C251 252 289 222 336 208C384 194 432 167 476 104" stroke="url(#accent)" stroke-width="7" stroke-linecap="round"/>
    <path d="M241 303C270 282 296 273 319 274C349 275 378 292 413 302" stroke="#09D6DE" stroke-width="3" stroke-linecap="round"/>
    <path d="M421 140L464 139M439 157L474 157M458 175L500 175" stroke="#8EF900" stroke-width="3" stroke-linecap="round"/>
  </g>

  <g>
    <path d="M295 300C307 262 332 246 366 246C396 246 420 264 431 300" stroke="#ECFFF0" stroke-opacity="0.9" stroke-width="5"/>
    <circle cx="363" cy="212" r="32" stroke="#ECFFF0" stroke-opacity="0.94" stroke-width="5"/>
    <path d="M364 181C378 181 390 170 390 156C390 142 378 131 364 131C350 131 338 142 338 156C338 170 350 181 364 181Z" fill="#8EF900" fill-opacity="0.9"/>
    <circle cx="364" cy="156" r="9" fill="#0F261F"/>
  </g>

  <g opacity="0.9">
    <rect x="74" y="282" width="170" height="86" rx="14" fill="#ECFFF0" fill-opacity="0.08" stroke="#E8FFE2" stroke-opacity="0.24"/>
    <text x="92" y="313" fill="#E6FFF2" font-family="Space Grotesk, Arial" font-size="13">Focus Index</text>
    <text x="92" y="348" fill="#8EF900" font-family="Bricolage Grotesque, Arial" font-size="33" font-weight="700">92%</text>
  </g>

  <g opacity="0.92">
    <rect x="500" y="254" width="150" height="104" rx="14" fill="#ECFFF0" fill-opacity="0.09" stroke="#E8FFE2" stroke-opacity="0.24"/>
    <text x="519" y="283" fill="#E6FFF2" font-family="Space Grotesk, Arial" font-size="13">Récupération</text>
    <text x="519" y="319" fill="#09D6DE" font-family="Bricolage Grotesque, Arial" font-size="31" font-weight="700">7h 48</text>
    <path d="M519 337H633" stroke="#D9FFE6" stroke-opacity="0.45"/>
  </g>

  <text x="56" y="58" fill="#E6FFF2" font-family="Bricolage Grotesque, Arial" font-size="26" font-weight="700">BioTrack • Biohacking Performance</text>
</svg>
