<svg width="360" height="640" viewBox="0 0 360 640" fill="none" xmlns="http://www.w3.org/2000/svg">
  <rect x="55" y="22" width="250" height="596" rx="36" fill="#10251D"/>
  <rect x="67" y="36" width="226" height="567" rx="30" fill="#F9FCFA"/>
  <rect x="144" y="50" width="72" height="8" rx="4" fill="#C8D9D2"/>

  <text x="88" y="98" fill="#1A372E" font-family="Bricolage Grotesque, Arial" font-size="20" font-weight="700">Track</text>
  <text x="88" y="122" fill="#3E6358" font-family="Space Grotesk, Arial" font-size="12">Saisie des mesures</text>

  <rect x="84" y="144" width="190" height="46" rx="12" fill="#FFFFFF" stroke="#CFDDD7"/>
  <text x="98" y="172" fill="#2A4B40" font-family="Space Grotesk, Arial" font-size="13">Durée du sommeil</text>

  <rect x="84" y="198" width="190" height="46" rx="12" fill="#FFFFFF" stroke="#CFDDD7"/>
  <text x="98" y="226" fill="#2A4B40" font-family="Space Grotesk, Arial" font-size="13">Énergie (1-10)</text>

  <rect x="84" y="252" width="190" height="46" rx="12" fill="#FFFFFF" stroke="#CFDDD7"/>
  <text x="98" y="280" fill="#2A4B40" font-family="Space Grotesk, Arial" font-size="13">Concentration (1-10)</text>

  <rect x="84" y="314" width="190" height="100" rx="14" fill="#FFFFFF" stroke="#CFDDD7"/>
  <text x="98" y="341" fill="#2A4B40" font-family="Space Grotesk, Arial" font-size="12">Notes</text>
  <text x="98" y="365" fill="#7B9990" font-family="Space Grotesk, Arial" font-size="11">Récupération correcte, ajuster le protocole.</text>

  <rect x="84" y="438" width="190" height="52" rx="14" fill="#8EF900"/>
  <text x="125" y="469" fill="#092017" font-family="Bricolage Grotesque, Arial" font-size="16" font-weight="700">Sauvegarder</text>

  <rect x="84" y="506" width="190" height="56" rx="14" fill="#0F2A21"/>
  <text x="98" y="531" fill="#DFFDEA" font-family="Space Grotesk, Arial" font-size="11">Dernière entrée</text>
  <text x="98" y="551" fill="#8EF900" font-family="Bricolage Grotesque, Arial" font-size="16" font-weight="700">Sommeil: 7h 12</text>
</svg>
